<svg width="51" height="46" viewBox="0 0 51 46" fill="none" xmlns="http://www.w3.org/2000/svg">
<path d="M50.5181 32.637C50.5181 41.009 45.1115 46 36.0424 46H33.0775C31.7071 46 30.5859 44.965 30.5859 43.7V30.429C30.5859 29.808 31.1341 29.279 31.8068 29.279L36.1918 29.21C36.5407 29.187 36.8396 28.957 36.9144 28.635L37.7864 24.242C37.8612 23.828 37.5124 23.437 37.039 23.437L31.732 23.506C31.0344 23.506 30.4863 23 30.4614 22.379L30.3617 16.744C30.3617 16.376 30.6856 16.054 31.1092 16.054L37.0888 15.962C37.5124 15.962 37.8363 15.663 37.8363 15.272L37.7366 9.75198C37.7366 9.36098 37.4127 9.062 36.9891 9.062L30.262 9.15402C26.1261 9.22302 22.8373 12.351 22.9121 16.169L23.0366 22.494C23.0616 23.138 22.5134 23.644 21.8158 23.667L18.826 23.713C18.4024 23.713 18.0786 24.012 18.0786 24.403L18.1533 28.773C18.1533 29.164 18.4772 29.463 18.9007 29.463L21.8905 29.417C22.5882 29.417 23.1363 29.923 23.1612 30.544L23.3855 43.654C23.4104 44.942 22.2892 46 20.8939 46H15.1635C6.09433 46 0.687744 41.009 0.687744 32.614V13.363C0.687744 4.991 6.09433 0 15.1635 0H36.0424C45.1115 0 50.5181 4.991 50.5181 13.363V32.637Z" fill="#6D83F3"/>
</svg>
