<svg width="50" height="49" viewBox="0 0 50 49" fill="none" xmlns="http://www.w3.org/2000/svg">
<path d="M20.7642 28.1165H29.0697V42.1747H20.7642V28.1165Z" fill="#E6E7F4"/>
<path d="M42.3999 20.4446L26.391 4.61896C26.198 4.43072 25.9683 4.28132 25.7153 4.17936C25.4622 4.0774 25.1909 4.0249 24.9167 4.0249C24.6426 4.0249 24.3712 4.0774 24.1182 4.17936C23.8652 4.28132 23.6355 4.43072 23.4425 4.61896L7.43355 20.4646C7.04617 20.8423 6.74023 21.2907 6.53349 21.7837C6.32675 22.2767 6.22334 22.8046 6.22924 23.3365V40.1663C6.22763 41.1944 6.63367 42.1839 7.36373 42.9312C8.09379 43.6784 9.09229 44.1264 10.1536 44.183H16.6112V26.108C16.6112 25.5754 16.83 25.0646 17.2193 24.6879C17.6087 24.3113 18.1369 24.0997 18.6876 24.0997H31.1459C31.6966 24.0997 32.2247 24.3113 32.6141 24.6879C33.0035 25.0646 33.2223 25.5754 33.2223 26.108V44.183H39.6799C40.7412 44.1264 41.7397 43.6784 42.4698 42.9312C43.1998 42.1839 43.6059 41.1944 43.6042 40.1663V23.3365C43.6059 22.2579 43.1741 21.2209 42.3999 20.4446Z" fill="#E6E7F4"/>
</svg>
