<svg width="50" height="47" viewBox="0 0 50 47" fill="none" xmlns="http://www.w3.org/2000/svg">
<path d="M35.2489 0H14.6325C5.67746 0 0.338867 5.0995 0.338867 13.6535V33.323C0.338867 41.9005 5.67746 47 14.6325 47H35.2243C44.1793 47 49.5179 41.9005 49.5179 33.3465V13.6535C49.5425 5.0995 44.2039 0 35.2489 0ZM24.9407 32.618C19.6759 32.618 15.3952 28.529 15.3952 23.5C15.3952 18.471 19.6759 14.382 24.9407 14.382C30.2055 14.382 34.4862 18.471 34.4862 23.5C34.4862 28.529 30.2055 32.618 24.9407 32.618ZM39.505 11.468C39.382 11.75 39.2098 12.0085 38.9883 12.2435C38.7423 12.455 38.4717 12.6195 38.1765 12.737C37.8813 12.8545 37.5614 12.925 37.2416 12.925C36.5774 12.925 35.9623 12.69 35.4949 12.2435C35.2735 12.0085 35.1012 11.75 34.9782 11.468C34.8552 11.186 34.7814 10.8805 34.7814 10.575C34.7814 10.2695 34.8552 9.964 34.9782 9.682C35.1012 9.3765 35.2735 9.1415 35.4949 8.9065C36.0607 8.366 36.9218 8.1075 37.709 8.272C37.8813 8.2955 38.0289 8.3425 38.1765 8.413C38.3241 8.46 38.4717 8.5305 38.6193 8.6245C38.7423 8.695 38.8653 8.8125 38.9883 8.9065C39.2098 9.1415 39.382 9.3765 39.505 9.682C39.628 9.964 39.7018 10.2695 39.7018 10.575C39.7018 10.8805 39.628 11.186 39.505 11.468Z" fill="#6D83F3"/>
</svg>
