<svg width="31" height="30" viewBox="0 0 31 30" fill="none" xmlns="http://www.w3.org/2000/svg">
<path d="M28.378 22.9125C28.378 23.3625 28.2746 23.825 28.055 24.275C27.8355 24.725 27.5513 25.15 27.1767 25.55C26.5438 26.225 25.8463 26.7125 25.0584 27.025C24.2834 27.3375 23.4438 27.5 22.5396 27.5C21.2221 27.5 19.8142 27.2 18.3288 26.5875C16.8434 25.975 15.358 25.15 13.8855 24.1125C12.3847 23.0501 10.9685 21.8802 9.64879 20.6125C8.34262 19.34 7.13792 17.9736 6.04504 16.525C4.98587 15.1 4.13337 13.675 3.51337 12.2625C2.89337 10.8375 2.58337 9.475 2.58337 8.175C2.58337 7.325 2.73837 6.5125 3.04837 5.7625C3.35837 5 3.84921 4.3 4.53379 3.675C5.36046 2.8875 6.26462 2.5 7.22046 2.5C7.58212 2.5 7.94379 2.575 8.26671 2.725C8.60254 2.875 8.89962 3.1 9.13212 3.425L12.1288 7.5125C12.3613 7.825 12.5292 8.1125 12.6455 8.3875C12.7617 8.65 12.8263 8.9125 12.8263 9.15C12.8263 9.45 12.7359 9.75 12.555 10.0375C12.3871 10.325 12.1417 10.625 11.8317 10.925L10.85 11.9125C10.708 12.05 10.6434 12.2125 10.6434 12.4125C10.6434 12.5125 10.6563 12.6 10.6821 12.7C10.7209 12.8 10.7596 12.875 10.7855 12.95C11.018 13.3625 11.4184 13.9 11.9867 14.55C12.568 15.2 13.188 15.8625 13.8596 16.525C14.5571 17.1875 15.2288 17.8 15.9134 18.3625C16.585 18.9125 17.1405 19.2875 17.5796 19.5125C17.6442 19.5375 17.7217 19.575 17.8121 19.6125C17.9155 19.65 18.0188 19.6625 18.135 19.6625C18.3546 19.6625 18.5225 19.5875 18.6646 19.45L19.6463 18.5125C19.9692 18.2 20.2792 17.9625 20.5763 17.8125C20.8734 17.6375 21.1705 17.55 21.4934 17.55C21.7388 17.55 21.9971 17.6 22.2813 17.7125C22.5655 17.825 22.8625 17.9875 23.1855 18.2L27.4609 21.1375C27.7967 21.3625 28.0292 21.625 28.1713 21.9375C28.3005 22.25 28.378 22.5625 28.378 22.9125Z" stroke="#6D83F3" stroke-width="1.5" stroke-miterlimit="10"/>
<path d="M20.0209 7.5H26.4792" stroke="#6D83F3" stroke-width="1.5" stroke-linecap="round" stroke-linejoin="round"/>
</svg>
