<svg width="69" height="59" viewBox="0 0 69 59" fill="none" xmlns="http://www.w3.org/2000/svg">
<g clip-path="url(#clip0_667_112)">
<path d="M68.8364 16.4823C66.9032 17.1816 64.8526 17.6407 62.7529 17.8442C64.94 16.7738 66.6193 15.0788 67.41 13.0593C65.3309 14.0667 63.0562 14.7765 60.6841 15.158C58.7519 13.4772 55.9994 12.4268 52.9527 12.4268C47.1031 12.4268 42.3604 16.2992 42.3604 21.0754C42.3604 21.7533 42.4542 22.4133 42.6347 23.0465C33.8318 22.6857 26.0272 19.2426 20.8029 14.0099C19.8914 15.2873 19.3691 16.7731 19.3691 18.3579C19.3691 21.3586 21.2392 24.0057 24.0811 25.5568C22.3991 25.5138 20.754 25.1428 19.2834 24.4749C19.2828 24.5111 19.2828 24.5473 19.2828 24.5837C19.2828 28.7742 22.9338 32.2698 27.7791 33.0644C26.2194 33.4108 24.5833 33.4615 22.9959 33.2126C24.3437 36.6487 28.2554 39.1491 32.8902 39.219C29.2652 41.5386 24.698 42.9214 19.7357 42.9214C18.8806 42.9214 18.0376 42.8804 17.209 42.8005C21.8964 45.2545 27.4639 46.6863 33.4454 46.6863C52.9281 46.6863 63.5817 33.5074 63.5817 22.0784C63.5817 21.7033 63.5716 21.3303 63.5511 20.9595C65.6247 19.7354 67.4145 18.2193 68.8364 16.4823" fill="#6D83F3"/>
</g>
<defs>
<clipPath id="clip0_667_112">
<rect width="51.6275" height="34.4167" fill="white" transform="translate(17.2091 12.2915)"/>
</clipPath>
</defs>
</svg>
