<svg width="47" height="51" viewBox="0 0 47 51" fill="none" xmlns="http://www.w3.org/2000/svg">
<path d="M34.3885 44.0719C34.0753 44.0732 33.7664 43.9941 33.4876 43.841L23.5001 38.2376L13.5126 43.841C13.1883 44.0238 12.8227 44.1054 12.4573 44.0765C12.0918 44.0477 11.7413 43.9095 11.4455 43.6778C11.1497 43.446 10.9205 43.13 10.7839 42.7656C10.6474 42.4012 10.609 42.0031 10.6731 41.6165L12.6314 29.8009L4.56306 21.4062C4.31133 21.137 4.13276 20.7994 4.04651 20.4297C3.96026 20.06 3.96958 19.672 4.07348 19.3076C4.18698 18.9346 4.39577 18.6031 4.67616 18.3509C4.95654 18.0986 5.29729 17.9357 5.65973 17.8805L16.8222 16.1386L21.7376 5.37236C21.898 5.01753 22.1484 4.71829 22.4601 4.50891C22.7718 4.29953 23.1323 4.18848 23.5001 4.18848C23.868 4.18848 24.2285 4.29953 24.5402 4.50891C24.8519 4.71829 25.1023 5.01753 25.2626 5.37236L30.2368 16.1176L41.3993 17.8595C41.7618 17.9147 42.1025 18.0777 42.3829 18.3299C42.6633 18.5822 42.8721 18.9136 42.9856 19.2866C43.0895 19.6511 43.0988 20.039 43.0125 20.4087C42.9263 20.7784 42.7477 21.116 42.496 21.3852L34.4276 29.7799L36.386 41.5955C36.4559 41.9889 36.4193 42.3956 36.2805 42.7675C36.1417 43.1393 35.9065 43.4609 35.6026 43.6941C35.248 43.9605 34.821 44.0933 34.3885 44.0719Z" fill="#E6E7F4"/>
</svg>
