<svg width="55" height="59" viewBox="0 0 55 59" fill="none" xmlns="http://www.w3.org/2000/svg">
<path d="M27.471 26.586C29.2821 26.586 31.0526 26.019 32.5584 24.9567C34.0643 23.8944 35.238 22.3845 35.9311 20.618C36.6241 18.8515 36.8055 16.9076 36.4521 15.0323C36.0988 13.157 35.2267 11.4344 33.9461 10.0823C32.6654 8.73028 31.0338 7.80953 29.2575 7.4365C27.4812 7.06347 25.64 7.25492 23.9668 7.98664C22.2935 8.71836 20.8634 9.95749 19.8572 11.5473C18.851 13.1372 18.314 15.0063 18.314 16.9184C18.314 19.4824 19.2787 21.9414 20.996 23.7544C22.7133 25.5674 25.0424 26.586 27.471 26.586Z" fill="#E6E7F4"/>
<path d="M41.2068 50.7552C41.8139 50.7552 42.3962 50.5005 42.8255 50.0473C43.2548 49.594 43.496 48.9793 43.496 48.3383C43.496 43.8512 41.8077 39.548 38.8024 36.3752C35.7972 33.2024 31.7212 31.4199 27.4712 31.4199C23.2211 31.4199 19.1451 33.2024 16.1399 36.3752C13.1346 39.548 11.4463 43.8512 11.4463 48.3383C11.4463 48.9793 11.6875 49.594 12.1168 50.0473C12.5461 50.5005 13.1284 50.7552 13.7356 50.7552H41.2068Z" fill="#E6E7F4"/>
</svg>
